%TF.GenerationSoftware,KiCad,Pcbnew,9.0.0*%
%TF.CreationDate,2025-04-01T00:51:48+01:00*%
%TF.ProjectId,Wireless_bluetooth_speaker,57697265-6c65-4737-935f-626c7565746f,rev?*%
%TF.SameCoordinates,Original*%
%TF.FileFunction,Paste,Top*%
%TF.FilePolarity,Positive*%
%FSLAX46Y46*%
G04 Gerber Fmt 4.6, Leading zero omitted, Abs format (unit mm)*
G04 Created by KiCad (PCBNEW 9.0.0) date 2025-04-01 00:51:48*
%MOMM*%
%LPD*%
G01*
G04 APERTURE LIST*
G04 Aperture macros list*
%AMRoundRect*
0 Rectangle with rounded corners*
0 $1 Rounding radius*
0 $2 $3 $4 $5 $6 $7 $8 $9 X,Y pos of 4 corners*
0 Add a 4 corners polygon primitive as box body*
4,1,4,$2,$3,$4,$5,$6,$7,$8,$9,$2,$3,0*
0 Add four circle primitives for the rounded corners*
1,1,$1+$1,$2,$3*
1,1,$1+$1,$4,$5*
1,1,$1+$1,$6,$7*
1,1,$1+$1,$8,$9*
0 Add four rect primitives between the rounded corners*
20,1,$1+$1,$2,$3,$4,$5,0*
20,1,$1+$1,$4,$5,$6,$7,0*
20,1,$1+$1,$6,$7,$8,$9,0*
20,1,$1+$1,$8,$9,$2,$3,0*%
G04 Aperture macros list end*
%ADD10RoundRect,0.250001X-0.924999X-0.499999X0.924999X-0.499999X0.924999X0.499999X-0.924999X0.499999X0*%
%ADD11RoundRect,0.375000X-0.625000X-0.375000X0.625000X-0.375000X0.625000X0.375000X-0.625000X0.375000X0*%
%ADD12RoundRect,0.500000X-0.500000X-1.400000X0.500000X-1.400000X0.500000X1.400000X-0.500000X1.400000X0*%
%ADD13RoundRect,0.218750X-0.218750X-0.381250X0.218750X-0.381250X0.218750X0.381250X-0.218750X0.381250X0*%
%ADD14RoundRect,0.157500X-0.157500X-0.222500X0.157500X-0.222500X0.157500X0.222500X-0.157500X0.222500X0*%
%ADD15RoundRect,0.075000X-0.650000X-0.075000X0.650000X-0.075000X0.650000X0.075000X-0.650000X0.075000X0*%
%ADD16RoundRect,0.150000X-0.850000X-0.150000X0.850000X-0.150000X0.850000X0.150000X-0.850000X0.150000X0*%
%ADD17R,1.150000X0.700000*%
%ADD18RoundRect,0.035000X-0.540000X-0.315000X0.540000X-0.315000X0.540000X0.315000X-0.540000X0.315000X0*%
%ADD19RoundRect,0.035000X0.315000X-0.540000X0.315000X0.540000X-0.315000X0.540000X-0.315000X-0.540000X0*%
%ADD20RoundRect,0.014000X-0.336000X0.336000X-0.336000X-0.336000X0.336000X-0.336000X0.336000X0.336000X0*%
%ADD21RoundRect,0.250000X-0.262500X-1.775000X0.262500X-1.775000X0.262500X1.775000X-0.262500X1.775000X0*%
%ADD22R,0.400000X1.400000*%
%ADD23R,1.150000X1.450000*%
%ADD24R,1.750000X1.900000*%
%ADD25R,0.800000X1.000000*%
G04 APERTURE END LIST*
D10*
%TO.C,C2*%
X125425001Y-107250000D03*
X128075001Y-107250000D03*
%TD*%
%TO.C,C1*%
X127100000Y-89750000D03*
X129750000Y-89750000D03*
%TD*%
D11*
%TO.C,U3*%
X133875000Y-92150000D03*
D12*
X140175000Y-89850000D03*
D11*
X133875000Y-89850000D03*
X133875000Y-87550000D03*
%TD*%
D13*
%TO.C,L1*%
X146525000Y-87600000D03*
X144400000Y-87600000D03*
%TD*%
D14*
%TO.C,U4*%
X158885000Y-106880000D03*
X158885000Y-107820000D03*
X159665000Y-106880000D03*
X159665000Y-107820000D03*
D15*
X157125000Y-106350000D03*
X157125000Y-106850000D03*
X157125000Y-107350000D03*
X157125000Y-107850000D03*
X157125000Y-108350000D03*
X161425000Y-108350000D03*
X161425000Y-107850000D03*
X161425000Y-107350000D03*
X161425000Y-106850000D03*
X161425000Y-106350000D03*
%TD*%
D16*
%TO.C,U2*%
X132525000Y-106905000D03*
X132525000Y-108175000D03*
X132525000Y-109445000D03*
X132525000Y-110715000D03*
X132525000Y-111985000D03*
X132525000Y-113255000D03*
X132525000Y-114525000D03*
X132525000Y-115795000D03*
X137525000Y-115795000D03*
X137525000Y-114525000D03*
X137525000Y-113255000D03*
X137525000Y-111985000D03*
X137525000Y-110715000D03*
X137525000Y-109445000D03*
X137525000Y-108175000D03*
X137525000Y-106905000D03*
%TD*%
D17*
%TO.C,U1*%
X145625000Y-106425000D03*
D18*
X145625000Y-107425000D03*
X145625000Y-108425000D03*
X145625000Y-109425000D03*
X145625000Y-110425000D03*
X145625000Y-111425000D03*
X145625000Y-112425000D03*
X145625000Y-113425000D03*
X145625000Y-114425000D03*
X145625000Y-115425000D03*
D19*
X147750000Y-115350000D03*
X148750000Y-115350000D03*
X149750000Y-115350000D03*
X150750000Y-115350000D03*
X151750000Y-115350000D03*
D18*
X153875000Y-115425000D03*
X153875000Y-114425000D03*
X153875000Y-113425000D03*
X153875000Y-112425000D03*
X153875000Y-111425000D03*
X153875000Y-110425000D03*
X153875000Y-109425000D03*
X153875000Y-108425000D03*
X153875000Y-107425000D03*
X153875000Y-106425000D03*
D19*
X151750000Y-106500000D03*
X150750000Y-106500000D03*
X149750000Y-106500000D03*
X148750000Y-106500000D03*
X147750000Y-106500000D03*
D20*
X149175000Y-109200000D03*
X150325000Y-109200000D03*
X148025000Y-110350000D03*
X149175000Y-110350000D03*
X150325000Y-110350000D03*
X151475000Y-110350000D03*
X149175000Y-111500000D03*
X150325000Y-111500000D03*
X148025000Y-112650000D03*
X149175000Y-112650000D03*
X150325000Y-112650000D03*
X151475000Y-112650000D03*
%TD*%
D21*
%TO.C,R3*%
X161337500Y-113100000D03*
X163212500Y-113100000D03*
%TD*%
%TO.C,R2*%
X157087500Y-113100000D03*
X158962500Y-113100000D03*
%TD*%
%TO.C,R1*%
X140587500Y-113850000D03*
X142462500Y-113850000D03*
%TD*%
D22*
%TO.C,J1*%
X150350000Y-92200000D03*
X151000000Y-92200000D03*
X151650000Y-92200000D03*
X152300000Y-92200000D03*
X152950000Y-92200000D03*
D23*
X149330000Y-92620000D03*
D24*
X150525000Y-94850000D03*
X152775000Y-94850000D03*
D23*
X153970000Y-92620000D03*
%TD*%
D25*
%TO.C,D1*%
X164525000Y-109100000D03*
X166525000Y-109100000D03*
%TD*%
M02*
